<?xml version="1.0" encoding="UTF-8" standalone="no"?>
<svg
   xmlns:dc="http://purl.org/dc/elements/1.1/"
   xmlns:cc="http://creativecommons.org/ns#"
   xmlns:rdf="http://www.w3.org/1999/02/22-rdf-syntax-ns#"
   xmlns:svg="http://www.w3.org/2000/svg"
   xmlns="http://www.w3.org/2000/svg"
   xmlns:xlink="http://www.w3.org/1999/xlink"
   xmlns:sodipodi="http://sodipodi.sourceforge.net/DTD/sodipodi-0.dtd"
   xmlns:inkscape="http://www.inkscape.org/namespaces/inkscape"
   version="1.1"
   id="svg2"
   viewBox="0 0 128 128"
   height="128"
   width="128"
   inkscape:version="0.91 r"
   sodipodi:docname="icon.svg"
   inkscape:export-filename="/home/marko/Desktop/icon.png"
   inkscape:export-xdpi="33.75"
   inkscape:export-ydpi="33.75">
  <sodipodi:namedview
     pagecolor="#808080"
     bordercolor="#000000"
     borderopacity="1"
     objecttolerance="10"
     gridtolerance="10"
     guidetolerance="10"
     inkscape:pageopacity="0"
     inkscape:pageshadow="2"
     inkscape:window-width="1871"
     inkscape:window-height="1056"
     id="namedview42"
     showgrid="false"
     inkscape:snap-center="true"
     inkscape:snap-object-midpoints="true"
     showguides="true"
     inkscape:guide-bbox="true"
     inkscape:zoom="3.5351563"
     inkscape:cx="92.031246"
     inkscape:cy="82.473851"
     inkscape:window-x="49"
     inkscape:window-y="24"
     inkscape:window-maximized="1"
     inkscape:current-layer="svg2">
    <sodipodi:guide
       position="64,64"
       orientation="1,0"
       id="guide4181"
       inkscape:label=""
       inkscape:color="rgb(0,0,255)" />
    <sodipodi:guide
       position="64,64"
       orientation="0,1"
       id="guide4186" />
  </sodipodi:namedview>
  <defs
     id="defs4">
    <inkscape:path-effect
       effect="clone_original"
       linkedpath="#path4144"
       id="path-effect4148" />
    <inkscape:path-effect
       effect="skeletal"
       id="path-effect4146"
       is_visible="true"
       pattern="m 141.79005,123.33259 1,0"
       copytype="single_stretched"
       prop_scale="1"
       scale_y_rel="false"
       spacing="0"
       normal_offset="0"
       tang_offset="0"
       prop_units="false"
       vertical_pattern="false"
       fuse_tolerance="0" />
    <inkscape:path-effect
       effect="skeletal"
       id="path-effect4140"
       is_visible="true"
       pattern="M 0,0 1,0"
       copytype="single_stretched"
       prop_scale="1"
       scale_y_rel="false"
       spacing="0"
       normal_offset="0"
       tang_offset="0"
       prop_units="false"
       vertical_pattern="false"
       fuse_tolerance="0" />
  </defs>
  <metadata
     id="metadata7">
    <rdf:RDF>
      <cc:Work
         rdf:about="">
        <dc:format>image/svg+xml</dc:format>
        <dc:type
           rdf:resource="http://purl.org/dc/dcmitype/StillImage" />
        <dc:title></dc:title>
      </cc:Work>
    </rdf:RDF>
  </metadata>
  <path
     style="opacity:0.85;fill:#ffefd5;fill-opacity:1;stroke:none;stroke-width:1.39999998;stroke-miterlimit:4;stroke-dasharray:none;stroke-opacity:1"
     d="m 113.43522,0.00433079 c -0.53183,0.0145321 -1.07118,0.0654907 -1.61601,0.15583566 0,0 -31.823703,3.65654805 -47.919696,3.66798185 -16.235108,0.011533 -47.779512,-3.66798185 -47.779512,-3.66798185 -8.8362272,0 -17.4448382,7.24452085 -15.9498682,15.95757155 0,0 4.2309677,31.899623 4.2288956,47.942839 -0.00207,15.996379 -4.2288956,47.802593 -4.2288956,47.802593 0,8.84049 7.2489707,17.49886 15.9498682,15.95757 0,0 32.328112,-5.10603 48.624512,-5.0783 15.782308,0.0268 47.074696,5.0783 47.074696,5.0783 8.83623,0 17.73739,-7.29986 15.94987,-15.95757 0,0 -5.07111,-31.532133 -5.07585,-47.802593 -0.005,-16.316509 5.07585,-47.942839 5.07585,-47.942839 0,-8.2879638 -6.35642,-16.33138864 -14.33386,-16.11340721 z"
     id="rect4183"
     inkscape:connector-curvature="0" />
  <g
     id="g4354"
     transform="matrix(1.038674,0,0,1.038674,-150.55677,6.537021)"
     style="fill:#ffffff;fill-opacity:1;stroke:#979797;stroke-opacity:1">
    <path
       inkscape:tile-y0="-21.108285"
       inkscape:tile-x0="-140.8"
       inkscape:tile-h="1.2"
       inkscape:tile-w="102.4"
       inkscape:tile-cy="-20.508285"
       inkscape:tile-cx="-89.6"
       inkscape:connector-curvature="0"
       inkscape:original-d="m 155.36795,103.9558 102.4,0"
       inkscape:path-effect="#path-effect4146"
       id="path4144"
       d="m 155.36795,103.9558 c 34.13333,0 68.26667,0 102.4,0"
       style="fill:#ffffff;fill-opacity:1;fill-rule:evenodd;stroke:#979797;stroke-width:1.20000005;stroke-linecap:butt;stroke-linejoin:miter;stroke-miterlimit:4;stroke-dasharray:none;stroke-opacity:1" />
    <use
       height="100%"
       width="100%"
       transform="translate(4.9999997e-7,-3.1352201e-6)"
       id="use4292"
       xlink:href="#path4144"
       inkscape:tiled-clone-of="#path4144"
       y="0"
       x="0"
       style="fill:#ffffff;fill-opacity:1;stroke:#979797;stroke-opacity:1" />
    <use
       height="100%"
       width="100%"
       id="use4294"
       transform="translate(4.9999997e-7,-10.807203)"
       xlink:href="#path4144"
       inkscape:tiled-clone-of="#path4144"
       y="0"
       x="0"
       style="fill:#ffffff;fill-opacity:1;stroke:#979797;stroke-opacity:1" />
    <use
       height="100%"
       width="100%"
       id="use4296"
       transform="translate(4.9999997e-7,-21.614403)"
       xlink:href="#path4144"
       inkscape:tiled-clone-of="#path4144"
       y="0"
       x="0"
       style="fill:#ffffff;fill-opacity:1;stroke:#979797;stroke-opacity:1" />
    <use
       height="100%"
       width="100%"
       id="use4298"
       transform="translate(4.9999997e-7,-32.421603)"
       xlink:href="#path4144"
       inkscape:tiled-clone-of="#path4144"
       y="0"
       x="0"
       style="fill:#ffffff;fill-opacity:1;stroke:#979797;stroke-opacity:1" />
    <use
       height="100%"
       width="100%"
       id="use4300"
       transform="translate(4.9999997e-7,-43.2288)"
       xlink:href="#path4144"
       inkscape:tiled-clone-of="#path4144"
       y="0"
       x="0"
       style="fill:#ffffff;fill-opacity:1;stroke:#979797;stroke-opacity:1" />
    <use
       height="100%"
       width="100%"
       id="use4302"
       transform="translate(4.9999997e-7,-54.036)"
       xlink:href="#path4144"
       inkscape:tiled-clone-of="#path4144"
       y="0"
       x="0"
       style="fill:#ffffff;fill-opacity:1;stroke:#979797;stroke-opacity:1" />
    <use
       height="100%"
       width="100%"
       id="use4304"
       transform="translate(4.9999997e-7,-64.8432)"
       xlink:href="#path4144"
       inkscape:tiled-clone-of="#path4144"
       y="0"
       x="0"
       style="fill:#ffffff;fill-opacity:1;stroke:#979797;stroke-opacity:1" />
    <use
       height="100%"
       width="100%"
       id="use4306"
       transform="translate(4.9999997e-7,-75.6504)"
       xlink:href="#path4144"
       inkscape:tiled-clone-of="#path4144"
       y="0"
       x="0"
       style="fill:#ffffff;fill-opacity:1;stroke:#979797;stroke-opacity:1" />
    <use
       height="100%"
       width="100%"
       id="use4308"
       transform="translate(4.9999997e-7,-86.4576)"
       xlink:href="#path4144"
       inkscape:tiled-clone-of="#path4144"
       y="0"
       x="0"
       style="fill:#ffffff;fill-opacity:1;stroke:#979797;stroke-opacity:1" />
    <use
       height="100%"
       width="100%"
       id="use4310"
       transform="translate(4.9999997e-7,-97.2648)"
       xlink:href="#path4144"
       inkscape:tiled-clone-of="#path4144"
       y="0"
       x="0"
       style="fill:#ffffff;fill-opacity:1;stroke:#979797;stroke-opacity:1" />
  </g>
  <g
     style="font-style:italic;font-variant:normal;font-weight:500;font-stretch:normal;font-size:106.45733643px;line-height:125%;font-family:'URW Chancery L';-inkscape-font-specification:'URW Chancery L, Medium Italic';text-align:start;letter-spacing:0px;word-spacing:0px;writing-mode:lr-tb;text-anchor:start;fill:#191970;fill-opacity:1;stroke:none;stroke-width:1px;stroke-linecap:butt;stroke-linejoin:miter;stroke-opacity:1"
     id="text4170"
     transform="translate(-2.3474695,5.4255155)">
    <path
       d="m 17.699792,70.81708 -4.684123,11.071563 c 3.726007,5.003494 8.729501,7.345556 15.649228,7.345556 16.287973,0 32.256573,-13.307167 32.256573,-26.827249 0,-4.364751 -1.703317,-6.600355 -9.58116,-12.77488 -7.771386,-6.068069 -9.048874,-7.877843 -9.048874,-12.455509 0,-6.919727 5.21641,-12.881337 11.497393,-12.881337 4.471208,0 6.068068,1.916232 7.239099,8.729501 l 7.026184,-5.003495 c -0.638744,-5.855153 -3.832464,-8.729501 -9.474703,-8.729501 -10.965106,0 -23.420614,12.136136 -23.420614,22.675412 0,4.79058 2.235604,8.303673 8.410129,13.094253 7.239099,5.748696 9.155331,8.623044 9.155331,13.520081 0,8.303673 -7.9843,15.649229 -17.246088,15.649229 -4.577666,0 -9.261788,-2.022689 -12.136136,-5.21641 -2.235605,-2.448518 -3.087263,-4.684122 -3.938922,-9.368245 l -1.703317,1.171031 z"
       id="path4175"
       inkscape:connector-curvature="0" />
    <path
       d="m 99.345916,48.461039 c 0.319372,0 0.958114,0 2.129144,0.106457 l 4.36475,-3.406635 c -5.53578,-0.106457 -5.53578,-0.106457 -6.706809,-0.106457 -1.277488,0 -1.277488,0 -6.280983,0.106457 6.919727,-27.040163 8.516582,-30.34034 14.797572,-30.34034 1.80977,0 3.19372,0.212914 7.13264,0.851658 l 4.89704,-5.7486959 c -2.12915,-0.5322867 -2.98081,-0.638744 -5.10996,-0.638744 -6.38744,0 -10.85864,2.3420609 -17.991285,9.2617879 -5.961611,5.748697 -7.345556,8.942417 -11.497392,26.614334 -1.064574,-0.106457 -1.596861,-0.106457 -2.129147,-0.106457 l -5.21641,0.212915 c -0.212914,0 -0.745201,0 -1.59686,-0.106458 -0.638744,0.42583 -1.277488,0.851659 -1.490402,0.958116 l -2.342062,1.277489 c -0.425829,0.212914 -1.277488,0.638744 -2.129147,1.17103 l 2.661434,0 c 0,0 7.452013,0.106458 7.452013,0.106458 0.638744,0 1.809775,0 3.938922,-0.106458 -1.703318,6.493898 -2.342062,9.368246 -4.364751,18.630034 -6.38744,29.275768 -8.835959,34.06635 -17.884832,34.06635 -1.490403,0 -2.767891,-0.10646 -5.642239,-0.53229 -1.064574,1.59686 -1.383946,2.12915 -2.129147,3.08726 -0.851659,1.17103 -1.809775,2.34207 -2.661433,3.61955 2.342061,0.31938 3.513092,0.42583 5.216409,0.42583 3.513092,0 6.280983,-0.53228 7.9843,-1.4904 3.087263,-1.70332 8.516587,-6.919727 11.390935,-10.645734 3.300178,-4.471208 7.132642,-13.626539 9.581161,-23.314156 4.577665,-17.352546 5.748696,-21.717297 6.280982,-23.846444 0.958116,0.106458 1.383946,0.106458 1.809775,0.106458 l 5.535782,-0.212915 z"
       id="path4177"
       inkscape:connector-curvature="0" />
  </g>
  <path
     style="fill:#000000;fill-rule:evenodd;stroke:none;stroke-width:1px;stroke-linecap:butt;stroke-linejoin:miter;stroke-opacity:1"
     d="m 12.729282,19.942543 c 33.473296,0 66.946592,0 100.419888,0"
     id="path4138"
     inkscape:path-effect="#path-effect4140"
     inkscape:original-d="m 12.729282,19.942543 100.419888,0"
     inkscape:connector-curvature="0" />
</svg>
